<svg width="12" height="11" xmlns="http://www.w3.org/2000/svg" xmlns:xlink="http://www.w3.org/1999/xlink"><path fill="#E5E5E5" d="M0 0h12v11H0z"/><g transform="translate(-1201 557)"><use xlink:href="#path0_fill" transform="translate(1199 -559)" fill="#FFF"/><mask id="a"><use xlink:href="#path0_fill" fill="#fff" transform="translate(1199 -559)"/></mask><g mask="url(#a)"><use xlink:href="#path1_stroke_2x" transform="translate(1199 -559)" fill="#DADEE5"/></g></g><use xlink:href="#path0_fill" transform="translate(-2 -2)" fill="#2D9CDB"/><use xlink:href="#path2_stroke" transform="translate(1 1)" fill="#FFF"/><defs><path id="path0_fill" d="M0 2a2 2 0 0 1 2-2h11a2 2 0 0 1 2 2v11a2 2 0 0 1-2 2H2a2 2 0 0 1-2-2V2z"/><path id="path1_stroke_2x" d="M2 1h11v-2H2v2zm12 1v11h2V2h-2zm-1 12H2v2h11v-2zM1 13V2h-2v11h2zm1 1a1 1 0 0 1-1-1h-2a3 3 0 0 0 3 3v-2zm12-1a1 1 0 0 1-1 1v2a3 3 0 0 0 3-3h-2zM13 1a1 1 0 0 1 1 1h2a3 3 0 0 0-3-3v2zM2-1a3 3 0 0 0-3 3h2a1 1 0 0 1 1-1v-2z"/><path id="path2_stroke" d="M4 8.5l-.39.312.415.52.383-.544L4 8.5zM-.39 3.812l4 5 .78-.624-4-5-.78.624zm4.798 4.976l6-8.5-.816-.576-6 8.5.816.576z"/></defs></svg>