<svg width="10" height="10" xmlns="http://www.w3.org/2000/svg" xmlns:xlink="http://www.w3.org/1999/xlink"><g transform="translate(-1418 -946)"><path fill="#E5E5E5" d="M1418 946h10v10h-10z"/><clipPath id="a" clip-rule="evenodd"><path d="M849 455h1440v1026H849V455z" fill="#FFF"/></clipPath><g clip-path="url(#a)"><path d="M849 455h1440v1026H849V455z" fill="#FFF"/><use xlink:href="#path0_fill" transform="translate(1383 560)" fill="#FFF"/><mask id="b"><use xlink:href="#path0_fill" fill="#fff" transform="translate(1383 560)"/></mask><g mask="url(#b)"><use xlink:href="#path1_stroke_2x" transform="translate(1383 560)" fill="#DADEE5"/></g><mask id="c"><use xlink:href="#path2_fill" fill="#fff" transform="translate(1418 946)"/></mask><g mask="url(#c)"><use xlink:href="#path3_stroke_2x" transform="translate(1418 946)" fill="#DADEE5"/></g><use xlink:href="#path4_stroke" transform="rotate(30 -1055.99 3126.753)" fill="#DADEE5"/><use xlink:href="#path4_stroke" transform="rotate(-150 840.01 286.756)" fill="#DADEE5"/></g></g><defs><path id="path0_fill" d="M0 10C0 4.477 4.477 0 10 0h351c5.523 0 10 4.477 10 10v650c0 5.523-4.477 10-10 10H10c-5.523 0-10-4.477-10-10V10z"/><path id="path1_stroke_2x" d="M10 1h351v-2H10v2zm360 9v650h2V10h-2zm-9 659H10v2h351v-2zM1 660V10h-2v650h2zm9 9a9 9 0 0 1-9-9h-2c0 6.075 4.925 11 11 11v-2zm360-9a9 9 0 0 1-9 9v2c6.075 0 11-4.925 11-11h-2zM361 1a9 9 0 0 1 9 9h2c0-6.075-4.925-11-11-11v2zM10-1C3.925-1-1 3.925-1 10h2a9 9 0 0 1 9-9v-2z"/><path id="path2_fill" d="M10 5A5 5 0 1 1 0 5a5 5 0 0 1 10 0z"/><path id="path3_stroke_2x" d="M9.5 5A4.5 4.5 0 0 1 5 9.5v1A5.5 5.5 0 0 0 10.5 5h-1zM5 9.5A4.5 4.5 0 0 1 .5 5h-1A5.5 5.5 0 0 0 5 10.5v-1zM.5 5A4.5 4.5 0 0 1 5 .5v-1A5.5 5.5 0 0 0-.5 5h1zM5 .5A4.5 4.5 0 0 1 9.5 5h1A5.5 5.5 0 0 0 5-.5v1z"/><path id="path4_stroke" d="M6 2l-.112.224.362.18V2H6zm-5.776.112c.152-.305.48-.776.96-1.169C1.66.553 2.272.25 3 .25v-.5c-.873 0-1.594.364-2.133.807a4.34 4.34 0 0 0-1.09 1.331l.447.224zM3 .25c.727 0 1.34.302 1.817.693.479.393.807.864.96 1.169l.447-.224A4.34 4.34 0 0 0 5.134.557C4.593.114 3.872-.25 3-.25v.5zm3.112 1.526l-1-.5-.224.448 1 .5.224-.448zM6.25 2V1h-.5v1h.5z"/></defs></svg>