<svg xmlns="http://www.w3.org/2000/svg" style="display:none"><symbol id="icon-arrow" viewBox="0 0 401.949 401.949"><path d="M328.508 173.212L211.214 4.948c-5.633-6.598-14.846-6.598-20.479 0L73.445 173.209c-5.631 6.599-3.146 11.996 5.529 11.996h49.068c8.672 0 15.77 7.097 15.77 15.771l.077 51.518v133.428l-.021.292c.003 8.676 7.321 15.734 15.991 15.736l82.789-.002c8.674 0 15.771-7.096 15.771-15.766l-.279-185.207c0-8.674 7.094-15.771 15.769-15.771h49.066c8.672.001 11.161-5.396 5.533-11.992z"/></symbol><symbol id="icon-checked-big" viewBox="0 0 504.12 504.12"><circle cx="252.06" cy="252.06" r="252.06"/><path d="M463.163 114.609L240.246 345.403l.394 24.812h10.24l241.428-194.56c-7.09-21.661-16.936-42.535-29.145-61.046z"/><path d="M499.397 103.582l-44.505-44.111c-5.908-5.908-15.754-5.908-22.055 0L242.609 256l-82.314-81.132c-5.908-5.908-15.754-5.908-22.055 0l-39.385 38.991c-5.908 5.908-5.908 15.754 0 21.662L230.4 365.883c3.545 3.545 8.271 4.726 12.997 4.332 4.726.394 9.452-.788 12.997-4.332l243.003-240.246c5.908-6.302 5.908-16.148 0-22.055z"/><path d="M256.394 365.883l243.003-240.246c5.908-5.908 5.908-15.754 0-21.662l-7.089-6.695-249.305 244.972-137.846-134.301-5.908 5.908c-5.908 5.908-5.908 15.754 0 21.662l131.545 130.363c3.545 3.545 8.271 4.726 12.997 4.332 4.332.393 9.058-.788 12.603-4.333z"/></symbol><symbol id="icon-checked" viewBox="0 0 26 26"><path d="M.3 14c-.2-.2-.3-.5-.3-.7s.1-.5.3-.7l1.4-1.4c.4-.4 1-.4 1.4 0l.1.1 5.5 5.9c.2.2.5.2.7 0L22.8 3.3h.1c.4-.4 1-.4 1.4 0l1.4 1.4c.4.4.4 1 0 1.4l-16 16.6c-.2.2-.4.3-.7.3-.3 0-.5-.1-.7-.3L.5 14.3.3 14z"/></symbol><symbol id="icon-clock" viewBox="0 0 299.995 299.995"><path d="M149.995 0C67.156 0 0 67.158 0 149.995s67.156 150 149.995 150 150-67.163 150-150S232.834 0 149.995 0zm64.847 178.524H151.25c-.215 0-.415-.052-.628-.06-.213.01-.412.06-.628.06-5.729 0-10.374-4.645-10.374-10.374V62.249c0-5.729 4.645-10.374 10.374-10.374s10.374 4.645 10.374 10.374v95.527h54.47c5.729 0 10.374 4.645 10.374 10.374 0 5.729-4.641 10.374-10.37 10.374z"/></symbol><symbol id="icon-eye" viewBox="0 0 488.85 488.85"><path d="M244.425 98.725c-93.4 0-178.1 51.1-240.6 134.1-5.1 6.8-5.1 16.3 0 23.1 62.5 83.1 147.2 134.2 240.6 134.2s178.1-51.1 240.6-134.1c5.1-6.8 5.1-16.3 0-23.1-62.5-83.1-147.2-134.2-240.6-134.2zm6.7 248.3c-62 3.9-113.2-47.2-109.3-109.3 3.2-51.2 44.7-92.7 95.9-95.9 62-3.9 113.2 47.2 109.3 109.3-3.3 51.1-44.8 92.6-95.9 95.9zm-3.1-47.4c-33.4 2.1-61-25.4-58.8-58.8 1.7-27.6 24.1-49.9 51.7-51.7 33.4-2.1 61 25.4 58.8 58.8-1.8 27.7-24.2 50-51.7 51.7z"/></symbol><symbol id="icon-fb" viewBox="0 0 49.652 49.652"><path d="M24.826 0C11.137 0 0 11.137 0 24.826c0 13.688 11.137 24.826 24.826 24.826 13.688 0 24.826-11.138 24.826-24.826C49.652 11.137 38.516 0 24.826 0zM31 25.7h-4.039v14.396h-5.985V25.7h-2.845v-5.088h2.845v-3.291c0-2.357 1.12-6.04 6.04-6.04l4.435.017v4.939h-3.219c-.524 0-1.269.262-1.269 1.386v2.99h4.56L31 25.7z"/></symbol><symbol id="icon-gift" viewBox="0 0 504.124 504.124"><path d="M15.754 133.909l236.308 118.154L488.37 133.909v252.062L252.062 504.123 15.754 385.969v-252.06z"/><path d="M15.754 157.538v73.649l235.52 115.397 237.095-115.791v-73.255L252.062 273.33 15.754 157.538z"/><path d="M252.062 504.123v-252.06L31.508 141.786H15.754v244.185l236.308 118.152z"/><path d="M15.754 157.538v73.649l235.52 115.397.788-.394v-73.255.394L15.754 157.538z"/><path d="M0 125.638L252.062.001l252.062 125.637v16.542L252.062 267.815 0 142.573v-16.935z"/><path d="M396.603 39.779c-8.271-14.966-25.994-24.025-46.868-24.025-47.655 0-81.132 44.505-97.674 72.862-16.542-28.357-50.412-72.468-97.674-72.468-30.326 0-51.988 18.511-51.988 43.717 0 44.898 49.231 74.043 148.086 74.043s151.237-37.415 151.237-73.649c.001-7.089-1.574-14.178-5.119-20.48zM164.628 88.223c-11.028-7.483-14.966-15.754-14.966-21.268 0-6.695 6.302-11.815 15.36-11.815 21.268 0 38.203 27.963 47.655 47.262-24.812-1.97-39.385-8.666-48.049-14.179zm174.867 0c-8.665 5.514-23.237 12.209-48.049 14.178 9.058-19.298 25.994-47.262 47.655-47.262 9.058 0 15.36 5.12 15.36 11.815.001 5.515-3.938 13.785-14.966 21.269z"/><path d="M0 126.032l252.062 123.274 252.062-123.274v81.526l-252.85 123.274L0 207.558v-81.526z"/><path d="M346.585 213.859v-9.058l-94.523-51.2-94.523 51.2v9.058L94.524 186.29v-12.603l154.387-81.526 3.151 1.575 3.151-1.575L409.6 173.293v12.603l-63.015 27.963z"/><path d="M346.585 204.801v251.668l63.015-31.508V173.293l-63.015 31.508z"/><path d="M94.523 425.354l63.015 31.508V205.195l-63.015-31.902v252.061z"/></symbol><symbol id="icon-ok" viewBox="0 0 97.75 97.75"><g><path d="M48.921 40.507a8.367 8.367 0 0 0 8.367-8.443c-.017-4.679-3.742-8.402-8.411-8.406a8.398 8.398 0 0 0-8.432 8.508c.035 4.66 3.794 8.358 8.476 8.341z"/><path d="M48.875 0C21.882 0 0 21.883 0 48.875S21.882 97.75 48.875 97.75 97.75 75.867 97.75 48.875 75.868 0 48.875 0zm.07 14.863c9.52.026 17.161 7.813 17.112 17.438-.048 9.403-7.814 17.024-17.318 16.992-9.407-.032-17.122-7.831-17.066-17.253.053-9.525 7.772-17.203 17.272-17.177zm19.282 41.194c-2.105 2.161-4.639 3.725-7.453 4.816-2.66 1.031-5.575 1.55-8.461 1.896.437.474.642.707.914.979 3.916 3.937 7.851 7.854 11.754 11.802 1.33 1.346 1.607 3.014.875 4.577-.799 1.71-2.592 2.834-4.351 2.713-1.114-.077-1.983-.63-2.754-1.407-2.956-2.974-5.968-5.895-8.862-8.925-.845-.882-1.249-.714-1.994.052a589.856 589.856 0 0 1-9.034 9.072c-1.365 1.346-2.989 1.59-4.573.82-1.683-.814-2.753-2.533-2.671-4.262.058-1.166.632-2.06 1.434-2.858 3.877-3.869 7.742-7.75 11.608-11.628.257-.257.495-.53.868-.93-5.273-.551-10.028-1.849-14.099-5.032-.506-.396-1.027-.778-1.487-1.222-1.783-1.711-1.962-3.672-.553-5.69 1.207-1.728 3.231-2.19 5.336-1.197.408.191.796.433 1.168.689 7.586 5.213 18.008 5.356 25.624.233.754-.576 1.561-1.05 2.496-1.289 1.816-.468 3.512.201 4.486 1.791 1.115 1.817 1.102 3.589-.271 5z"/></g></symbol><symbol id="icon-pencil" viewBox="0 0 528.899 528.899"><path d="M328.883 89.125l107.59 107.589-272.34 272.34L56.604 361.465l272.279-272.34zm189.23-25.948l-47.981-47.981c-18.543-18.543-48.653-18.543-67.259 0l-45.961 45.961 107.59 107.59 53.611-53.611c14.382-14.383 14.382-37.577 0-51.959zM.3 512.69c-1.958 8.812 5.998 16.708 14.811 14.565l119.891-29.069L27.473 390.597.3 512.69z"/></symbol><symbol id="icon-phone" viewBox="0 0 578.106 578.106"><path d="M577.83 456.128c1.225 9.385-1.635 17.545-8.568 24.48l-81.396 80.781c-3.672 4.08-8.465 7.551-14.381 10.404-5.916 2.857-11.729 4.693-17.439 5.508-.408 0-1.635.105-3.676.309-2.037.203-4.689.307-7.953.307-7.754 0-20.301-1.326-37.641-3.979s-38.555-9.182-63.645-19.584c-25.096-10.404-53.553-26.012-85.376-46.818-31.823-20.805-65.688-49.367-101.592-85.68-28.56-28.152-52.224-55.08-70.992-80.783-18.768-25.705-33.864-49.471-45.288-71.299-11.425-21.828-19.993-41.616-25.705-59.364S4.59 177.362 2.55 164.51-.306 141.56.102 134.216c.408-7.344.612-11.424.612-12.24.816-5.712 2.652-11.526 5.508-17.442s6.324-10.71 10.404-14.382L98.022 8.756c5.712-5.712 12.24-8.568 19.584-8.568 5.304 0 9.996 1.53 14.076 4.59s7.548 6.834 10.404 11.322l65.484 124.236c3.672 6.528 4.692 13.668 3.06 21.42-1.632 7.752-5.1 14.28-10.404 19.584l-29.988 29.988c-.816.816-1.53 2.142-2.142 3.978s-.918 3.366-.918 4.59c1.632 8.568 5.304 18.36 11.016 29.376 4.896 9.792 12.444 21.726 22.644 35.802s24.684 30.293 43.452 48.653c18.36 18.77 34.68 33.354 48.96 43.76 14.277 10.4 26.215 18.053 35.803 22.949 9.588 4.896 16.932 7.854 22.031 8.871l7.648 1.531c.816 0 2.145-.307 3.979-.918 1.836-.613 3.162-1.326 3.979-2.143l34.883-35.496c7.348-6.527 15.912-9.791 25.705-9.791 6.938 0 12.443 1.223 16.523 3.672h.611l118.115 69.768c8.571 5.308 13.67 12.038 15.303 20.198z"/></symbol><symbol id="icon-placeholder" viewBox="0 0 54.757 54.757"><path d="M40.94 5.617A19.052 19.052 0 0 0 27.38 0a19.05 19.05 0 0 0-13.56 5.617c-6.703 6.702-7.536 19.312-1.804 26.952L27.38 54.757 42.721 32.6c5.755-7.671 4.922-20.281-1.781-26.983zM27.557 26c-3.859 0-7-3.141-7-7s3.141-7 7-7 7 3.141 7 7-3.141 7-7 7z"/></symbol><symbol id="icon-rocket" viewBox="0 0 503.947 503.947"><path d="M156.762 355.214c22.055 22.055 22.055 58.289 0 80.345-22.055 22.055-87.04 50.806-109.095 28.751s6.695-87.04 28.751-109.095c22.055-22.056 57.895-22.056 80.344-.001z"/><path d="M90.99 344.58v2.363c0 40.96 33.477 74.437 74.437 74.437h1.575c11.028-21.268 7.483-48.049-10.634-66.166-17.329-17.723-44.11-21.268-65.378-10.634z"/><path d="M272.553 231.546c67.348 67.348 80.738 163.052 16.935 226.855l-30.326 30.326c-63.803 63.803-19.692-89.403-87.04-156.751s-220.948-22.843-156.751-87.04l30.326-30.326c63.804-63.802 159.508-50.411 226.856 16.936z"/><path d="M495.47 8.629c20.48 20.48 11.422 150.449-114.215 276.48-81.92 81.526-133.514 110.277-133.514 110.277-54.745 37.022-81.132 11.815-115.791-22.843s-60.258-61.046-22.843-115.791c0 0 29.145-51.988 110.671-133.908C345.414-2.792 474.99-12.244 495.47 8.629z"/><path d="M269.402 377.663c-57.108 38.203-84.677 12.209-120.517-23.631-36.234-36.234-62.622-63.409-23.631-120.517l5.908-9.452c-15.36 20.874-22.055 32.689-22.055 32.689-37.415 54.745-11.815 81.132 22.843 115.791s61.046 59.471 115.791 22.843c0 0 24.418-13.785 66.56-48.837-28.751 22.056-44.899 31.114-44.899 31.114z"/><path d="M363.531 140.568c19.298 19.298 19.298 50.412 0 69.711-19.298 19.298-50.412 19.298-69.711 0-19.298-19.298-19.298-50.412 0-69.711s50.807-19.299 69.711 0z"/><path d="M249.71 262.66c9.846 9.846-9.058 44.898-57.108 92.948s-77.194 61.046-87.04 50.806c-9.846-9.846 2.757-38.991 50.806-87.04 48.443-48.049 83.102-66.954 93.342-56.714z"/><path d="M328.873 137.811c9.846 0 19.298 3.938 26.388 11.028 7.089 7.089 11.028 16.542 11.028 26.388s-3.938 19.298-11.028 26.388c-7.089 7.089-16.542 11.028-26.388 11.028s-19.298-3.938-26.388-11.028c-7.089-7.089-11.028-16.542-11.028-26.388s3.938-19.298 11.028-26.388c7.089-7.09 16.542-11.028 26.388-11.028m0-11.815c-12.603 0-25.206 4.726-34.658 14.572-19.298 19.298-19.298 50.412 0 69.711 9.452 9.452 22.055 14.572 34.658 14.572s25.206-4.726 34.658-14.572c19.298-19.298 19.298-50.412 0-69.711-9.452-9.846-22.055-14.572-34.658-14.572z"/><path d="M374.953 18.476c3.545 26.388 17.723 54.351 40.96 77.588 20.48 20.086 44.111 33.477 67.348 38.991C509.254 70.463 507.285 20.839 495.47 8.629c-11.422-11.815-58.683-13.784-120.517 9.847z"/></symbol><symbol id="icon-rubbish-bin" viewBox="0 0 408.483 408.483"><path d="M87.748 388.784c.461 11.01 9.521 19.699 20.539 19.699h191.911c11.018 0 20.078-8.689 20.539-19.699l13.705-289.316H74.043l13.705 289.316zm159.907-217.455a8.35 8.35 0 0 1 8.35-8.349h13.355a8.351 8.351 0 0 1 8.35 8.349v165.293a8.35 8.35 0 0 1-8.35 8.349h-13.355a8.35 8.35 0 0 1-8.35-8.349V171.329zm-58.439 0a8.35 8.35 0 0 1 8.349-8.349h13.355a8.35 8.35 0 0 1 8.349 8.349v165.293a8.348 8.348 0 0 1-8.349 8.349h-13.355a8.348 8.348 0 0 1-8.349-8.349V171.329zm-58.441 0a8.35 8.35 0 0 1 8.349-8.349h13.356a8.35 8.35 0 0 1 8.349 8.349v165.293a8.349 8.349 0 0 1-8.349 8.349h-13.356a8.348 8.348 0 0 1-8.349-8.349V171.329zM343.567 21.043h-88.535V4.305A4.305 4.305 0 0 0 250.727 0h-92.971a4.305 4.305 0 0 0-4.304 4.305v16.737H64.916c-7.125 0-12.9 5.776-12.9 12.901V74.47h304.451V33.944c0-7.125-5.775-12.901-12.9-12.901z"/></symbol><symbol id="icon-tg" viewBox="0 0 54 54"><path d="M49.7 16.5c1.3 3.1 2 6.3 2 9.7s-.7 6.6-2 9.7c-1.3 3.1-3.1 5.7-5.3 8-2.2 2.2-4.9 4-8 5.3-3.1 1.3-6.3 2-9.7 2-3.4 0-6.6-.7-9.7-2s-5.7-3.1-8-5.3c-2.2-2.2-4-4.9-5.3-8-1.3-3.1-2-6.3-2-9.7s.7-6.6 2-9.7c1.3-3.1 3.1-5.7 5.3-8 2.2-2.2 4.9-4 8-5.3s6.3-2 9.7-2c3.4 0 6.6.7 9.7 2 3.1 1.3 5.7 3.1 8 5.3 2.2 2.3 3.9 5 5.3 8zM34.8 37.7l4.1-19.3c.2-.8.1-1.4-.3-1.8-.4-.4-.8-.4-1.4-.2l-24.1 9.3c-.5.2-.9.4-1.1.7-.2.3-.2.5-.1.7.1.2.4.4.9.5l6.2 1.9 14.3-9c.4-.3.7-.3.9-.2.1.1.1.2-.1.4L22.5 31.3l-.5 6.4c.4 0 .8-.2 1.3-.6l3-2.9 6.2 4.6c1.3.7 2 .3 2.3-1.1z"/></symbol><symbol id="icon-user" viewBox="0 0 409.165 409.164"><path d="M204.583 216.671c50.664 0 91.74-48.075 91.74-107.378 0-82.237-41.074-107.377-91.74-107.377-50.668 0-91.74 25.14-91.74 107.377.001 59.303 41.073 107.378 91.74 107.378zm202.581 158.046L360.88 270.454a23.23 23.23 0 0 0-10.465-11.138l-71.83-37.392a4.628 4.628 0 0 0-4.926.415c-20.316 15.366-44.203 23.488-69.076 23.488-24.877 0-48.762-8.122-69.078-23.488a4.635 4.635 0 0 0-4.93-.415L58.75 259.316a23.222 23.222 0 0 0-10.465 11.138L2.001 374.717a23.059 23.059 0 0 0 1.75 22.005 23.056 23.056 0 0 0 19.4 10.526h362.861a23.063 23.063 0 0 0 19.402-10.527 23.063 23.063 0 0 0 1.75-22.004z"/></symbol><symbol id="icon-vk" viewBox="0 0 97.75 97.75"><path d="M48.875 0C21.883 0 0 21.882 0 48.875S21.883 97.75 48.875 97.75 97.75 75.868 97.75 48.875 75.867 0 48.875 0zm24.792 54.161c2.278 2.225 4.688 4.319 6.733 6.774.906 1.086 1.76 2.209 2.41 3.472.928 1.801.09 3.776-1.522 3.883l-10.013-.002c-2.586.214-4.644-.829-6.379-2.597-1.385-1.409-2.67-2.914-4.004-4.371-.545-.598-1.119-1.161-1.803-1.604-1.365-.888-2.551-.616-3.333.81-.797 1.451-.979 3.059-1.055 4.674-.109 2.361-.821 2.978-3.19 3.089-5.062.237-9.865-.531-14.329-3.083-3.938-2.251-6.986-5.428-9.642-9.025-5.172-7.012-9.133-14.708-12.692-22.625-.801-1.783-.215-2.737 1.752-2.774 3.268-.063 6.536-.055 9.804-.003 1.33.021 2.21.782 2.721 2.037 1.766 4.345 3.931 8.479 6.644 12.313.723 1.021 1.461 2.039 2.512 2.76 1.16.796 2.044.533 2.591-.762.35-.823.501-1.703.577-2.585.26-3.021.291-6.041-.159-9.05-.28-1.883-1.339-3.099-3.216-3.455-.956-.181-.816-.535-.351-1.081.807-.944 1.563-1.528 3.074-1.528l11.313-.002c1.783.35 2.183 1.15 2.425 2.946l.01 12.572c-.021.695.349 2.755 1.597 3.21 1 .33 1.66-.472 2.258-1.105 2.713-2.879 4.646-6.277 6.377-9.794.764-1.551 1.423-3.156 2.063-4.764.476-1.189 1.216-1.774 2.558-1.754l10.894.013c.321 0 .647.003.965.058 1.836.314 2.339 1.104 1.771 2.895-.894 2.814-2.631 5.158-4.329 7.508-1.82 2.516-3.761 4.944-5.563 7.471-1.656 2.31-1.525 3.473.531 5.479z"/></symbol></svg>